<?xml version="1.0" encoding="UTF-8"?>
<!DOCTYPE svg PUBLIC "-//W3C//DTD SVG 1.1//EN" "http://www.w3.org/Graphics/SVG/1.1/DTD/svg11.dtd">
<!-- Creator: CorelDRAW 2021.5 -->
<svg xmlns="http://www.w3.org/2000/svg" xml:space="preserve" width="200px" height="61px" version="1.1" style="shape-rendering:geometricPrecision; text-rendering:geometricPrecision; image-rendering:optimizeQuality; fill-rule:evenodd; clip-rule:evenodd"
viewBox="0 0 200 61.36"
 xmlns:xlink="http://www.w3.org/1999/xlink"
 xmlns:xodm="http://www.corel.com/coreldraw/odm/2003">
 <defs>
  <style type="text/css">
   <![CDATA[
    .fil4 {fill:#231F20}
    .fil3 {fill:#F26F24}
    .fil0 {fill:#00A591;fill-rule:nonzero}
    .fil2 {fill:#F26F24;fill-rule:nonzero}
    .fil1 {fill:white;fill-rule:nonzero}
   ]]>
  </style>
 </defs>
 <g id="Layer_x0020_1">
  <metadata id="CorelCorpID_0Corel-Layer"/>
  <g id="_2052934743408">
   <polygon class="fil0" points="-0.08,0.1 -0.08,37.74 115.81,37.74 115.81,0.1 "/>
   <path class="fil1" d="M51.77 25.6c0.04,-2.04 0.06,-4.31 0.06,-6.81 0.01,-2.55 -0.01,-4.83 -0.06,-6.84 -0.02,-1.03 -0.05,-1.81 -0.08,-2.32 -0.03,-0.5 -0.06,-1 -0.11,-1.49 0.74,0.05 1.58,0.07 2.52,0.07 0.94,0 1.79,-0.02 2.53,-0.07 -0.05,0.48 -0.08,0.97 -0.1,1.48 -0.04,0.51 -0.07,1.28 -0.08,2.33 -0.05,2.03 -0.07,4.31 -0.07,6.82 0,2.54 0.02,4.81 0.07,6.83 0.01,1.04 0.04,1.83 0.08,2.33 0.02,0.51 0.05,1 0.1,1.47 -0.74,-0.04 -1.59,-0.06 -2.52,-0.06 -0.95,0 -1.79,0.02 -2.53,0.06 0.05,-0.48 0.08,-0.99 0.11,-1.49 0.03,-0.5 0.06,-1.27 0.08,-2.31z"/>
   <path class="fil1" d="M60.37 25.8c0.04,-2.04 0.08,-4.34 0.08,-6.92 0,-2.59 -0.04,-4.9 -0.08,-6.95 -0.03,-1.04 -0.05,-1.82 -0.07,-2.32 -0.03,-0.51 -0.07,-0.99 -0.12,-1.47 0.68,0.13 1.49,0.2 2.42,0.25 0.94,0.05 1.76,0.05 2.43,0 1.12,-0.07 2.15,-0.12 3.1,-0.17 0.94,-0.05 1.54,-0.08 1.79,-0.08 3.3,0 5.83,0.89 7.6,2.67 1.77,1.77 2.66,4.31 2.66,7.6 0,3.59 -1.01,6.34 -3,8.28 -2,1.93 -4.86,2.89 -8.58,2.89 -0.29,0 -0.93,-0.02 -1.91,-0.06 -0.99,-0.05 -2.03,-0.11 -3.15,-0.18 -0.46,-0.03 -1.01,-0.02 -1.66,0.03 -0.65,0.05 -1.21,0.12 -1.7,0.21 0.05,-0.46 0.09,-0.96 0.12,-1.46 0.02,-0.5 0.04,-1.28 0.07,-2.32zm4.68 1.51c0.91,0.1 1.89,0.15 2.96,0.14 2.33,0 4.11,-0.79 5.32,-2.36 1.2,-1.56 1.81,-3.86 1.81,-6.87 0,-2.59 -0.62,-4.56 -1.85,-5.91 -1.22,-1.34 -3.02,-2.02 -5.38,-2.02 -1.03,0 -1.97,0.04 -2.86,0.11 -0.04,2.42 -0.06,5.24 -0.06,8.46 0,3.22 0.02,6.04 0.06,8.45z"/>
   <path class="fil1" d="M82.97 25.6c0.05,-2.04 0.06,-4.31 0.06,-6.81 0,-2.55 -0.01,-4.83 -0.06,-6.84 -0.03,-1.05 -0.05,-1.82 -0.08,-2.33 -0.02,-0.51 -0.05,-1 -0.1,-1.48l2.42 0.07 5.23 -0.07c1.99,0 3.59,0.44 4.8,1.27 1.21,0.86 1.81,1.97 1.81,3.36 0,1.61 -0.64,2.92 -1.94,3.9 -0.76,0.58 -1.64,0.98 -2.67,1.2 1.18,0.26 2.19,0.71 3.05,1.36 1.33,1.05 2,2.45 2,4.18 0,1.81 -0.65,3.25 -1.93,4.35 -1.29,1.09 -2.98,1.64 -5.1,1.64l-5.25 -0.06 -2.42 0.06c0.05,-0.47 0.08,-0.96 0.1,-1.48 0.03,-0.5 0.05,-1.28 0.08,-2.32zm4.55 -8.29l0.6 0c1.34,0 2.37,-0.34 3.11,-1.04 0.72,-0.69 1.09,-1.67 1.09,-2.95 0,-1.01 -0.32,-1.79 -0.96,-2.33 -0.65,-0.55 -1.57,-0.83 -2.76,-0.83 -0.37,0 -0.72,0.04 -1.08,0.1l0 7.05zm0 9.97l1.3 0.11c1.28,0 2.26,-0.37 2.95,-1.12 0.69,-0.73 1.04,-1.79 1.04,-3.16 0,-1.24 -0.37,-2.21 -1.1,-2.86 -0.73,-0.66 -1.8,-0.99 -3.2,-0.99l-0.99 0 0 8.02z"/>
   <path class="fil1" d="M102.12 25.6c0.05,-2.04 0.07,-4.31 0.07,-6.81 0.01,-2.55 -0.01,-4.83 -0.07,-6.84 -0.03,-1.03 -0.04,-1.81 -0.07,-2.32 -0.02,-0.5 -0.06,-1 -0.11,-1.49 0.74,0.05 1.58,0.07 2.52,0.07 0.94,0 1.78,-0.02 2.53,-0.07 -0.05,0.48 -0.08,0.97 -0.11,1.48 -0.03,0.51 -0.05,1.28 -0.08,2.33 -0.04,2.03 -0.06,4.31 -0.06,6.82 0,2.54 0.02,4.81 0.06,6.83 0.03,1.04 0.05,1.83 0.08,2.33 0.03,0.51 0.06,1 0.11,1.47 -0.75,-0.04 -1.58,-0.06 -2.52,-0.06 -0.94,0 -1.79,0.02 -2.53,0.06 0.05,-0.48 0.09,-0.99 0.11,-1.49 0.03,-0.5 0.04,-1.27 0.07,-2.31z"/>
   <path class="fil1" d="M28.96 37.8c9.15,-1.48 16.13,-9.36 16.13,-18.87 0,-9.52 -7.01,-17.41 -16.2,-18.88l-6.11 0c-9.18,1.47 -16.19,9.36 -16.19,18.88 0,9.51 6.98,17.39 16.12,18.87 0.01,0 6.22,0 6.25,0z"/>
   <path class="fil2" d="M25.72 33.66c5.58,0 10.1,-4.49 10.11,-10.04 0,-3.82 -2.09,-7.4 -5.18,-9.14 -0.62,-0.34 -2.89,-2.45 -2.89,1.33 0,2.22 0,13.08 0,15.07 0,0.66 -1.53,1.06 -2.07,1.06 -0.56,0 -2.08,-0.43 -2.08,-1.06 0,-1.9 0.01,-12.91 0.01,-15.07 0,-3.93 -2.22,-1.7 -2.87,-1.33 -3.09,1.73 -5.18,5.32 -5.18,9.13 0,5.54 4.53,10.05 10.15,10.05z"/>
   <path class="fil2" d="M25.73 11c1.24,0 2.26,-1.03 2.27,-2.28 -0.01,-1.26 -1.03,-2.28 -2.27,-2.28 -1.26,0 -2.29,1.02 -2.29,2.28 -0.01,1.25 1.02,2.28 2.29,2.28z"/>
   <path class="fil2" d="M30.69 6.95c1.02,-1.66 1.88,-0.35 4.81,2.48 3.19,3.1 4.31,6.59 4.31,10.06 0,7.74 -6.23,14.17 -14.03,14.17 -8.22,0 -14.2,-6.62 -14.2,-14.18 0,-4.04 1.49,-7.29 4.31,-10.06 2.63,-2.59 3.89,-4.31 4.81,-2.48 2.22,4.36 -1.66,5.05 -3.68,7.87 -1.88,2.62 -2.53,4.84 -2.53,7.2 0,6.12 4.69,11.65 11.29,11.65 6.24,0 11.11,-5.4 11.11,-11.62 0,-2.9 -1.11,-5.42 -2.52,-7.23 -2.43,-3.11 -5.73,-3.53 -3.68,-7.86z"/>
   <polygon class="fil2" points="115.76,0.09 115.76,37.75 199.92,37.75 199.92,0.09 "/>
   <path class="fil1" d="M172.83 21.81c0.06,-0.28 0.14,-0.54 0.25,-0.79 0.1,-0.24 0.22,-0.48 0.36,-0.69 0.16,-0.26 0.33,-0.49 0.54,-0.7 0.21,-0.2 0.43,-0.4 0.69,-0.57 0.25,-0.16 0.51,-0.3 0.79,-0.42 0.27,-0.12 0.55,-0.23 0.84,-0.33l0.82 0 2.55 0 0 -2.46 -3.22 0.01 0 0.03c-0.43,0.02 -0.85,0.09 -1.26,0.21 -0.41,0.12 -0.81,0.27 -1.2,0.45 -0.25,0.13 -0.49,0.29 -0.71,0.45 -0.23,0.17 -0.45,0.35 -0.66,0.55 -0.32,0.3 -0.61,0.61 -0.88,0.95 -0.27,0.34 -0.52,0.69 -0.73,1.06 -0.16,0.3 -0.29,0.6 -0.41,0.91 -0.12,0.3 -0.2,0.62 -0.26,0.96 -0.08,0.37 -0.13,0.75 -0.15,1.12 -0.01,0.38 -0.01,0.76 0.01,1.15 0.02,0.12 0.04,0.23 0.06,0.34 0.01,0.11 0.03,0.22 0.06,0.34 0.06,0.24 0.12,0.47 0.2,0.7 0.08,0.22 0.17,0.44 0.27,0.66 0.13,0.28 0.29,0.55 0.46,0.81 0.18,0.27 0.37,0.52 0.56,0.76 0.24,0.25 0.49,0.5 0.75,0.73 0.27,0.24 0.54,0.45 0.84,0.62 0.37,0.22 0.75,0.4 1.15,0.56 0.4,0.16 0.82,0.28 1.25,0.35l1.43 0.06 2.41 -0.01 -0.01 -2.21c-0.19,0.02 -0.39,0.03 -0.6,0.05 -0.2,0 -0.4,0 -0.6,-0.02 -0.45,0.02 -0.9,0 -1.35,-0.06 -0.45,-0.05 -0.89,-0.14 -1.34,-0.26 -0.26,-0.1 -0.5,-0.22 -0.75,-0.37 -0.25,-0.14 -0.48,-0.32 -0.69,-0.51 -0.19,-0.16 -0.37,-0.34 -0.53,-0.53 -0.15,-0.2 -0.3,-0.41 -0.44,-0.62 -0.13,-0.26 -0.25,-0.52 -0.35,-0.8 -0.1,-0.28 -0.17,-0.56 -0.21,-0.86 -0.02,-0.1 -0.03,-0.19 -0.03,-0.28l0 -0.28c0,-0.18 0.01,-0.35 0.03,-0.53 0.02,-0.18 0.04,-0.36 0.06,-0.53zm-7.57 2.49c-0.06,0.3 -0.16,0.6 -0.27,0.9 -0.14,0.25 -0.31,0.49 -0.5,0.72 -0.19,0.23 -0.42,0.43 -0.67,0.61 -0.24,0.16 -0.48,0.3 -0.73,0.45 -0.26,0.13 -0.52,0.25 -0.79,0.35 -0.2,0.06 -0.4,0.1 -0.61,0.12 -0.2,0.02 -0.41,0.03 -0.62,0.03 -0.37,0 -0.74,-0.04 -1.1,-0.12 -0.36,-0.07 -0.71,-0.2 -1.04,-0.38 -0.37,-0.23 -0.72,-0.51 -1.04,-0.84 -0.32,-0.32 -0.59,-0.67 -0.81,-1.05 -0.23,-0.39 -0.41,-0.8 -0.54,-1.22 -0.13,-0.43 -0.21,-0.86 -0.22,-1.32 -0.01,-0.14 -0.01,-0.28 -0.01,-0.43 0,-0.14 0.01,-0.29 0.03,-0.42 0.02,-0.14 0.05,-0.28 0.07,-0.43 0.03,-0.15 0.07,-0.29 0.11,-0.43 0.19,-0.63 0.51,-1.18 0.96,-1.66 0.45,-0.47 0.97,-0.81 1.58,-1.01 0.27,-0.09 0.55,-0.17 0.83,-0.22 0.28,-0.05 0.57,-0.07 0.87,-0.07 0.31,0.01 0.62,0.06 0.92,0.14 0.3,0.08 0.59,0.18 0.86,0.3 0.28,0.13 0.52,0.29 0.72,0.46 0.21,0.18 0.4,0.37 0.57,0.57l-6.52 3.82 1.15 2.01 8.92 -5.16c-0.24,-0.51 -0.52,-0.98 -0.84,-1.42 -0.32,-0.43 -0.69,-0.83 -1.1,-1.21 -0.37,-0.29 -0.77,-0.55 -1.2,-0.78 -0.43,-0.22 -0.87,-0.4 -1.32,-0.54 -0.29,-0.1 -0.6,-0.17 -0.92,-0.22 -0.33,-0.05 -0.64,-0.08 -0.95,-0.1 -0.16,-0.02 -0.32,-0.03 -0.47,-0.03 -0.16,0 -0.32,0 -0.47,0l0 0.03c-0.49,0.02 -0.96,0.09 -1.42,0.22 -0.46,0.13 -0.91,0.31 -1.33,0.55 -0.43,0.24 -0.83,0.52 -1.19,0.85 -0.36,0.32 -0.67,0.68 -0.95,1.08 -0.25,0.41 -0.47,0.84 -0.64,1.28 -0.17,0.45 -0.31,0.91 -0.4,1.38 -0.04,0.2 -0.08,0.41 -0.11,0.63 -0.03,0.23 -0.04,0.45 -0.04,0.67 -0.02,0.1 -0.03,0.2 -0.03,0.31l0 0.34 0 0.43c0,0.15 0.02,0.3 0.04,0.46 0.21,0.92 0.56,1.79 1.04,2.61 0.48,0.82 1.08,1.53 1.8,2.14 0.39,0.27 0.81,0.5 1.26,0.69 0.45,0.19 0.91,0.3 1.38,0.34 0.23,0.04 0.47,0.06 0.7,0.08 0.24,0.02 0.47,0.03 0.71,0.03l0.35 0 0.38 0c0.11,-0.02 0.23,-0.04 0.35,-0.06 0.11,-0.02 0.23,-0.04 0.35,-0.06 0.47,-0.06 0.92,-0.18 1.36,-0.35 0.44,-0.18 0.86,-0.41 1.27,-0.69 0.39,-0.27 0.75,-0.58 1.09,-0.93 0.33,-0.35 0.62,-0.73 0.87,-1.14 0.25,-0.41 0.46,-0.85 0.61,-1.3 0.16,-0.45 0.25,-0.94 0.29,-1.45l-2.46 -0.5c-0.02,0.32 -0.06,0.63 -0.13,0.94zm27.87 -3.1c0.02,-0.63 -0.07,-1.25 -0.28,-1.86 -0.2,-0.61 -0.51,-1.17 -0.9,-1.68 -0.37,-0.43 -0.79,-0.8 -1.26,-1.09 -0.46,-0.3 -0.98,-0.51 -1.55,-0.65 -0.19,-0.04 -0.38,-0.07 -0.57,-0.1 -0.19,-0.03 -0.38,-0.05 -0.57,-0.05l-0.22 0c-0.07,0 -0.14,0.01 -0.22,0.03 -0.61,0.1 -1.19,0.29 -1.74,0.57 -0.56,0.28 -1.06,0.62 -1.51,1.04l-0.01 -7.51 -2.52 0 0.04 19.75 2.52 -0.01 -0.02 -7.54c0.02,-0.51 0.1,-1 0.23,-1.47 0.14,-0.48 0.34,-0.92 0.62,-1.33 0.15,-0.2 0.33,-0.38 0.54,-0.54 0.2,-0.15 0.43,-0.27 0.68,-0.35 0.22,-0.12 0.45,-0.21 0.69,-0.27 0.25,-0.06 0.49,-0.09 0.75,-0.09 0.47,0.02 0.9,0.14 1.3,0.35 0.4,0.22 0.73,0.52 0.98,0.92 0.16,0.19 0.28,0.39 0.37,0.6 0.09,0.21 0.14,0.42 0.16,0.64l0.02 9.07 2.49 -0.01 -0.02 -8.42zm-69.88 -5.14l0.02 13.74 2.58 0 -0.03 -13.74 -2.57 0zm2.74 -3.14c0,-0.02 0,-0.04 -0.01,-0.07 -0.01,-0.03 -0.02,-0.05 -0.02,-0.07 0,-0.04 0,-0.08 -0.01,-0.11 -0.01,-0.03 -0.02,-0.06 -0.02,-0.1 -0.04,-0.1 -0.08,-0.2 -0.13,-0.3 -0.05,-0.09 -0.1,-0.18 -0.16,-0.26 -0.14,-0.2 -0.31,-0.35 -0.53,-0.46 -0.21,-0.11 -0.45,-0.16 -0.7,-0.16l0 0.03 -0.12 0c-0.04,0 -0.08,0.01 -0.12,0.03 -0.09,0 -0.2,0.02 -0.3,0.07 -0.11,0.05 -0.21,0.11 -0.31,0.17 -0.19,0.2 -0.34,0.41 -0.44,0.65 -0.1,0.23 -0.16,0.49 -0.17,0.77l0 0.07c0,0.03 0.01,0.05 0.02,0.08l0 0.07c0.01,0.03 0.01,0.05 0.01,0.07 0.06,0.14 0.13,0.27 0.22,0.4 0.09,0.13 0.19,0.24 0.3,0.34 0.12,0.08 0.24,0.15 0.37,0.21 0.13,0.06 0.26,0.1 0.4,0.11 0.17,0 0.35,-0.01 0.52,-0.04 0.18,-0.03 0.34,-0.08 0.5,-0.14 0.12,-0.08 0.22,-0.16 0.31,-0.26 0.08,-0.1 0.17,-0.21 0.25,-0.33 0.01,-0.06 0.03,-0.11 0.05,-0.16 0.02,-0.05 0.04,-0.09 0.06,-0.13 0,-0.04 0.01,-0.09 0.02,-0.14 0.01,-0.05 0.01,-0.1 0.01,-0.16l0 -0.09 0 -0.09zm20.52 20.01c-1.53,-0.17 -2.98,0.28 -4.39,0.71l-2.34 0.6c-0.84,0.13 -2.38,0.21 -3.32,-0.76 -0.71,-0.73 -0.94,-1.99 -0.67,-3.78l1.39 0 -0.01 -2.6 -4.72 0 -0.01 -4.6c0,-0.2 0,-0.39 0.01,-0.59 0.01,-0.2 0.03,-0.39 0.05,-0.59 0.01,-0.18 0.04,-0.37 0.08,-0.57 0.04,-0.19 0.08,-0.39 0.12,-0.59 0.15,-0.45 0.41,-0.83 0.77,-1.15 0.36,-0.31 0.78,-0.53 1.25,-0.65 0.15,-0.06 0.31,-0.1 0.48,-0.14 0.16,-0.03 0.33,-0.04 0.48,-0.04l0.16 0c0.05,0 0.1,0.01 0.14,0.03 0.03,0 0.08,0 0.13,0.01 0.04,0.01 0.1,0.02 0.16,0.02 0.5,0.06 0.96,0.23 1.36,0.53 0.4,0.29 0.71,0.67 0.92,1.12 0.14,0.23 0.25,0.48 0.34,0.72 0.09,0.25 0.14,0.5 0.16,0.75l0.02 8.34 2.49 -0.01 -0.02 -9.51c-0.16,-0.69 -0.44,-1.32 -0.85,-1.89 -0.41,-0.57 -0.9,-1.05 -1.47,-1.45 -0.25,-0.17 -0.52,-0.33 -0.81,-0.45 -0.28,-0.13 -0.58,-0.23 -0.89,-0.28 -0.27,-0.08 -0.55,-0.13 -0.83,-0.16 -0.29,-0.03 -0.56,-0.05 -0.84,-0.05l-0.23 0c-0.08,0 -0.16,0.01 -0.24,0.03 -0.08,0 -0.15,0.01 -0.23,0.02 -0.08,0.01 -0.16,0 -0.23,-0.02l0 0.03c-0.65,0.09 -1.26,0.27 -1.85,0.57 -0.58,0.3 -1.11,0.67 -1.58,1.12 -0.48,0.56 -0.87,1.18 -1.15,1.89 -0.28,0.69 -0.42,1.41 -0.42,2.14l0.01 5.43 -0.01 0 0.01 2.61 0.01 0 2.51 -0.01 0 0 1.97 -0.01c-0.36,2.64 0.37,4.02 1.07,4.74 1.02,1.05 2.61,1.46 4.5,1.16 0,0 2.53,-0.65 2.53,-0.65 1.33,-0.41 2.59,-0.79 3.85,-0.66 1.81,0.2 3.18,1.77 4.32,3.53l1.59 0c-1.35,-2.29 -3.12,-4.61 -5.77,-4.89zm5.83 -16.92l-4.98 0.02 -0.01 -3.55 -2.51 0 0.02 12.92 0 0.34c0,0.1 0.01,0.21 0.03,0.31 0,0.1 0,0.2 0.01,0.31 0.01,0.11 0.03,0.22 0.05,0.34 0.04,0.23 0.1,0.47 0.19,0.69 0.09,0.23 0.21,0.45 0.34,0.67 0.15,0.25 0.35,0.48 0.57,0.67 0.23,0.2 0.47,0.37 0.72,0.51 0.21,0.13 0.45,0.24 0.7,0.32 0.26,0.08 0.51,0.13 0.76,0.15l4.07 -0.01 0 -2.25 -3.25 0.04c-0.2,-0.02 -0.4,-0.06 -0.6,-0.12 -0.21,-0.06 -0.39,-0.15 -0.54,-0.26 -0.12,-0.1 -0.21,-0.22 -0.28,-0.36 -0.07,-0.14 -0.12,-0.28 -0.16,-0.44 0,-0.04 -0.01,-0.08 -0.02,-0.1 -0.01,-0.04 -0.01,-0.08 -0.01,-0.14l-0.02 -7.77 4.92 -0.01 0 -2.28z"/>
   <polygon class="fil3" points="-0.08,59.69 199.85,59.69 199.85,61.41 -0.08,61.41 "/>
   <path class="fil4" d="M0.87 51.42c0.02,-0.79 0.03,-1.67 0.03,-2.64 0,-0.98 -0.01,-1.87 -0.03,-2.64 -0.01,-0.4 -0.02,-0.7 -0.03,-0.9 -0.02,-0.2 -0.03,-0.39 -0.05,-0.57 0.28,0.01 0.61,0.02 0.97,0.02 0.37,0 0.69,-0.01 0.98,-0.02 -0.02,0.18 -0.04,0.37 -0.05,0.56 -0.01,0.2 -0.02,0.5 -0.04,0.91 -0.01,0.78 -0.02,1.66 -0.02,2.63 0,0.98 0.01,1.86 0.02,2.65 0.02,0.4 0.03,0.7 0.04,0.9 0.01,0.19 0.03,0.38 0.05,0.57 -0.29,-0.02 -0.61,-0.03 -0.97,-0.03 -0.37,0 -0.7,0.01 -0.98,0.03 0.02,-0.19 0.03,-0.38 0.05,-0.58 0.01,-0.2 0.02,-0.49 0.03,-0.89zm4 -0.01l0.01 -1.39 -0.01 -1.38c0,-0.4 -0.02,-0.69 -0.03,-0.89 -0.01,-0.19 -0.03,-0.39 -0.07,-0.58 0.24,0.01 0.52,0.02 0.84,0.02 0.31,0 0.59,-0.01 0.84,-0.02 -0.04,0.27 -0.07,0.51 -0.09,0.7l-0.01 0.18c0.1,-0.13 0.2,-0.25 0.31,-0.35 0.45,-0.44 0.97,-0.66 1.56,-0.66 0.57,0 1.02,0.18 1.35,0.55 0.34,0.37 0.5,0.88 0.5,1.51l0 0.93 0.01 1.38c0,0.42 0.02,0.73 0.03,0.92 0,0.2 0.02,0.39 0.04,0.56 -0.25,-0.02 -0.55,-0.03 -0.87,-0.03 -0.33,0 -0.63,0.01 -0.89,0.03 0.05,-0.2 0.08,-0.39 0.1,-0.59 0.01,-0.2 0.02,-0.49 0.03,-0.89l0.01 -1.39 0 -0.72c0,-0.41 -0.09,-0.73 -0.26,-0.94 -0.17,-0.21 -0.42,-0.32 -0.76,-0.32 -0.36,0 -0.63,0.12 -0.81,0.36 -0.19,0.24 -0.28,0.6 -0.28,1.08l0 0.55 0.01 1.38c0.01,0.4 0.02,0.69 0.03,0.89 0.01,0.2 0.04,0.39 0.07,0.59 -0.26,-0.02 -0.55,-0.03 -0.87,-0.03 -0.34,0 -0.63,0.01 -0.89,0.03 0.03,-0.2 0.06,-0.39 0.07,-0.6 0.01,-0.19 0.03,-0.48 0.03,-0.88zm9.94 1.38c-0.4,0.16 -0.81,0.24 -1.21,0.24 -0.54,0 -0.92,-0.12 -1.15,-0.35 -0.24,-0.24 -0.36,-0.63 -0.36,-1.16l0 -3.69 -0.24 0.01c-0.13,0 -0.25,0.01 -0.37,0.03 -0.12,0.01 -0.2,0.03 -0.25,0.04 0.03,-0.16 0.04,-0.29 0.04,-0.4 0,-0.11 -0.01,-0.24 -0.04,-0.4 0.05,0.02 0.14,0.04 0.25,0.05 0.13,0.02 0.25,0.03 0.38,0.03l0.23 0.01 0 -0.38c0,-0.13 -0.01,-0.29 -0.03,-0.49 -0.01,-0.2 -0.04,-0.39 -0.07,-0.56 0.35,-0.13 0.66,-0.25 0.91,-0.36l0.7 -0.32 0.15 0.1c-0.03,0.18 -0.05,0.45 -0.07,0.82 -0.02,0.38 -0.03,0.77 -0.04,1.19l0.2 0c0.17,0 0.34,-0.01 0.52,-0.03 0.17,-0.02 0.3,-0.04 0.38,-0.07 -0.02,0.16 -0.04,0.29 -0.04,0.41 0,0.11 0.02,0.25 0.04,0.41 -0.08,-0.02 -0.21,-0.05 -0.39,-0.07 -0.17,-0.02 -0.35,-0.03 -0.52,-0.03l-0.19 0 0 3.81c0,0.28 0.05,0.5 0.16,0.64 0.11,0.15 0.28,0.22 0.5,0.22 0.2,0 0.37,-0.04 0.51,-0.09l0 0.39zm3.96 0.24c-0.9,0 -1.61,-0.26 -2.14,-0.79 -0.52,-0.53 -0.79,-1.25 -0.79,-2.16 0,-0.93 0.26,-1.68 0.77,-2.22 0.5,-0.55 1.19,-0.82 2.05,-0.82 0.77,0 1.39,0.24 1.84,0.74 0.36,0.4 0.57,0.92 0.64,1.56 0.02,0.17 0.04,0.34 0.04,0.5 0,0.16 0,0.28 -0.01,0.35l0 0.01c-0.14,-0.03 -0.4,-0.05 -0.77,-0.07 -0.36,-0.02 -0.73,-0.03 -1.11,-0.03l-1.74 0c0.04,0.65 0.18,1.15 0.43,1.51 0.29,0.42 0.72,0.63 1.3,0.63 0.3,0 0.58,-0.04 0.84,-0.13 0.26,-0.08 0.5,-0.2 0.73,-0.36l0.11 0.12 -0.32 0.69c-0.29,0.15 -0.59,0.27 -0.91,0.35 -0.32,0.08 -0.64,0.12 -0.96,0.12zm0.68 -3.55l0 0 0 -0.22c0,-0.56 -0.07,-0.98 -0.22,-1.26 -0.16,-0.28 -0.38,-0.43 -0.69,-0.43l0.01 0c-0.33,0 -0.58,0.19 -0.75,0.56 -0.15,0.32 -0.24,0.77 -0.25,1.35l1.9 0zm4.43 1.49c0,0.14 0.06,0.26 0.18,0.35 0.13,0.09 0.28,0.14 0.46,0.14l0.85 0c0.72,0 1.25,0.13 1.59,0.4 0.35,0.26 0.52,0.67 0.52,1.22 0,0.62 -0.28,1.15 -0.82,1.59 -0.54,0.43 -1.21,0.64 -2,0.64 -0.8,0 -1.42,-0.12 -1.86,-0.37 -0.43,-0.25 -0.65,-0.6 -0.65,-1.06 0,-0.37 0.09,-0.66 0.27,-0.88 0.18,-0.22 0.45,-0.37 0.81,-0.46 -0.09,-0.04 -0.17,-0.09 -0.25,-0.16 -0.25,-0.2 -0.37,-0.45 -0.37,-0.75 0,-0.33 0.19,-0.61 0.58,-0.84 0.16,-0.11 0.35,-0.19 0.55,-0.23 -0.34,-0.09 -0.63,-0.22 -0.87,-0.4 -0.43,-0.31 -0.65,-0.74 -0.65,-1.28 0,-0.57 0.22,-1.02 0.64,-1.35 0.43,-0.33 1,-0.49 1.73,-0.49l0.34 0.01 1.12 0.03c0.33,0 0.63,0 0.91,0 0.28,0 0.45,0 0.52,0 -0.02,0.13 -0.03,0.24 -0.03,0.33 0,0.1 0.01,0.21 0.03,0.35 -0.06,-0.03 -0.16,-0.06 -0.3,-0.08 -0.14,-0.01 -0.28,-0.02 -0.42,-0.03l-0.41 -0.02c0.4,0.34 0.6,0.74 0.6,1.19 0,0.56 -0.21,1 -0.64,1.33 -0.42,0.32 -1,0.49 -1.72,0.49 -0.27,0 -0.46,0.02 -0.56,0.07 -0.1,0.05 -0.15,0.14 -0.15,0.26zm0.74 -3.4c-0.28,0 -0.5,0.11 -0.65,0.34 -0.14,0.21 -0.21,0.54 -0.21,0.97 0,0.4 0.07,0.71 0.2,0.91 0.13,0.21 0.34,0.31 0.6,0.31l0 0c0.29,0 0.5,-0.11 0.65,-0.33 0.14,-0.22 0.21,-0.54 0.21,-0.97 0,-0.4 -0.07,-0.71 -0.2,-0.92 -0.14,-0.2 -0.34,-0.31 -0.61,-0.31l0.01 0zm-1.33 6.01c0,0.39 0.12,0.68 0.37,0.88 0.25,0.2 0.61,0.3 1.09,0.3 0.43,0 0.78,-0.1 1.03,-0.31 0.25,-0.21 0.37,-0.5 0.37,-0.87 0,-0.32 -0.09,-0.54 -0.28,-0.68 -0.19,-0.14 -0.5,-0.2 -0.93,-0.2l-1.06 0 -0.17 -0.01c-0.12,0.07 -0.22,0.2 -0.3,0.37 -0.08,0.17 -0.12,0.35 -0.12,0.52zm5.68 -2.17l0 -1.39 0 -1.38c-0.01,-0.4 -0.02,-0.69 -0.04,-0.89 -0.01,-0.19 -0.03,-0.39 -0.06,-0.58 0.24,0.01 0.52,0.02 0.83,0.02 0.31,0 0.6,-0.01 0.84,-0.02 -0.03,0.27 -0.05,0.51 -0.07,0.7l-0.04 0.65c0.13,-0.26 0.26,-0.49 0.4,-0.68 0.39,-0.54 0.82,-0.8 1.31,-0.8 0.04,0 0.1,0 0.16,0 0.05,0 0.11,0.01 0.16,0.02 -0.03,0.31 -0.05,0.58 -0.06,0.81 -0.01,0.23 -0.01,0.5 0,0.82l-0.13 0.07c-0.12,-0.08 -0.23,-0.13 -0.34,-0.17 -0.1,-0.03 -0.22,-0.05 -0.35,-0.05 -0.35,0 -0.62,0.14 -0.8,0.41 -0.17,0.27 -0.27,0.68 -0.27,1.21l0.01 1.25c0.01,0.4 0.02,0.69 0.03,0.89 0.02,0.2 0.04,0.39 0.07,0.59 -0.26,-0.02 -0.55,-0.03 -0.87,-0.03 -0.33,0 -0.62,0.01 -0.88,0.03 0.03,-0.2 0.05,-0.39 0.07,-0.6 0.01,-0.19 0.02,-0.48 0.03,-0.88zm6.11 1.62c-0.51,0 -0.93,-0.16 -1.25,-0.47 -0.32,-0.31 -0.48,-0.7 -0.48,-1.19 0,-0.42 0.13,-0.76 0.39,-1.02 0.26,-0.27 0.68,-0.48 1.24,-0.65l1.29 -0.37c0.17,-0.05 0.29,-0.13 0.36,-0.23 0.07,-0.1 0.09,-0.22 0.06,-0.38 -0.04,-0.24 -0.14,-0.44 -0.32,-0.59 -0.23,-0.2 -0.54,-0.31 -0.93,-0.31 -0.46,0 -0.91,0.17 -1.37,0.51l-0.13 -0.53c0.61,-0.51 1.31,-0.76 2.09,-0.76 0.73,0 1.29,0.14 1.66,0.45 0.38,0.29 0.57,0.73 0.57,1.31l0 3.17c0,0.17 0.04,0.3 0.13,0.39 0.09,0.09 0.23,0.13 0.4,0.13l0.1 0 0 0.28c-0.37,0.17 -0.74,0.26 -1.11,0.26 -0.31,0 -0.57,-0.11 -0.75,-0.32 -0.12,-0.14 -0.21,-0.32 -0.26,-0.53 -0.06,0.09 -0.13,0.17 -0.2,0.25 -0.39,0.4 -0.88,0.6 -1.49,0.6zm1.63 -1.99l0 -1.3 -0.51 0.15c-0.38,0.11 -0.66,0.28 -0.85,0.51 -0.18,0.24 -0.28,0.54 -0.28,0.89 0,0.32 0.07,0.56 0.19,0.72 0.12,0.16 0.3,0.24 0.55,0.24 0.27,0 0.49,-0.12 0.65,-0.37 0.15,-0.23 0.23,-0.5 0.25,-0.84zm6.4 1.75c-0.41,0.16 -0.81,0.24 -1.22,0.24 -0.53,0 -0.91,-0.12 -1.15,-0.35 -0.23,-0.24 -0.35,-0.63 -0.35,-1.16l0 -3.69 -0.24 0.01c-0.13,0 -0.26,0.01 -0.38,0.03 -0.12,0.01 -0.2,0.03 -0.24,0.04 0.02,-0.16 0.04,-0.29 0.04,-0.4 0,-0.11 -0.02,-0.24 -0.04,-0.4 0.05,0.02 0.13,0.04 0.25,0.05 0.12,0.02 0.25,0.03 0.38,0.03l0.23 0.01 0 -0.38c0,-0.13 -0.01,-0.29 -0.03,-0.49 -0.02,-0.2 -0.04,-0.39 -0.07,-0.56 0.35,-0.13 0.66,-0.25 0.91,-0.36l0.7 -0.32 0.15 0.1c-0.03,0.18 -0.05,0.45 -0.07,0.82 -0.02,0.38 -0.04,0.77 -0.04,1.19l0.19 0c0.18,0 0.35,-0.01 0.53,-0.03 0.17,-0.02 0.3,-0.04 0.38,-0.07 -0.03,0.16 -0.04,0.29 -0.04,0.41 0,0.11 0.01,0.25 0.04,0.41 -0.08,-0.02 -0.21,-0.05 -0.39,-0.07 -0.18,-0.02 -0.35,-0.03 -0.52,-0.03l-0.2 0 0 3.81c0,0.28 0.06,0.5 0.17,0.64 0.11,0.15 0.27,0.22 0.49,0.22 0.21,0 0.38,-0.04 0.52,-0.09l0 0.39zm1.52 -1.38l0.01 -1.39 -0.01 -1.38c-0.01,-0.4 -0.02,-0.69 -0.03,-0.89 -0.01,-0.19 -0.04,-0.39 -0.06,-0.58 0.25,0.01 0.54,0.02 0.86,0.02 0.33,0 0.63,-0.01 0.88,-0.02 -0.03,0.19 -0.05,0.39 -0.06,0.58 -0.02,0.2 -0.03,0.49 -0.03,0.89l-0.01 1.39 0.01 1.38c0,0.4 0.01,0.69 0.03,0.89 0.01,0.2 0.03,0.39 0.06,0.59 -0.25,-0.02 -0.54,-0.03 -0.87,-0.03 -0.33,0 -0.62,0.01 -0.87,0.03 0.02,-0.2 0.05,-0.39 0.06,-0.6 0.02,-0.19 0.02,-0.48 0.03,-0.88zm0.78 -7.34c0.26,0 0.48,0.09 0.65,0.27 0.18,0.18 0.27,0.39 0.27,0.65 0,0.26 -0.09,0.48 -0.27,0.65 -0.17,0.18 -0.39,0.27 -0.65,0.27 -0.26,0 -0.48,-0.09 -0.65,-0.27 -0.18,-0.17 -0.27,-0.39 -0.27,-0.65 0,-0.26 0.09,-0.47 0.27,-0.65 0.17,-0.18 0.39,-0.27 0.65,-0.27zm2.75 7.34l0 -1.39 0 -1.38c-0.01,-0.4 -0.02,-0.69 -0.03,-0.89 -0.02,-0.19 -0.04,-0.39 -0.07,-0.58 0.24,0.01 0.52,0.02 0.83,0.02 0.31,0 0.6,-0.01 0.84,-0.02 -0.03,0.27 -0.06,0.51 -0.08,0.7l-0.01 0.18c0.09,-0.13 0.2,-0.25 0.31,-0.35 0.44,-0.44 0.96,-0.66 1.55,-0.66 0.57,0 1.02,0.18 1.36,0.55 0.33,0.37 0.5,0.88 0.5,1.51l0 0.93 0 1.38c0.01,0.42 0.02,0.73 0.03,0.92 0.01,0.2 0.03,0.39 0.05,0.56 -0.26,-0.02 -0.55,-0.03 -0.88,-0.03 -0.33,0 -0.62,0.01 -0.88,0.03 0.04,-0.2 0.08,-0.39 0.09,-0.59 0.02,-0.2 0.03,-0.49 0.04,-0.89l0.01 -1.39 -0.01 -0.72c0,-0.41 -0.08,-0.73 -0.25,-0.94 -0.17,-0.21 -0.42,-0.32 -0.76,-0.32 -0.36,0 -0.63,0.12 -0.82,0.36 -0.18,0.24 -0.27,0.6 -0.27,1.08l0 0.55 0 1.38c0.01,0.4 0.02,0.69 0.04,0.89 0.01,0.2 0.03,0.39 0.06,0.59 -0.25,-0.02 -0.55,-0.03 -0.87,-0.03 -0.33,0 -0.63,0.01 -0.89,0.03 0.04,-0.2 0.06,-0.39 0.08,-0.6 0.01,-0.19 0.02,-0.48 0.03,-0.88zm8.34 -0.44c0,0.14 0.06,0.26 0.19,0.35 0.12,0.09 0.28,0.14 0.46,0.14l0.85 0c0.71,0 1.24,0.13 1.59,0.4 0.34,0.26 0.52,0.67 0.52,1.22 0,0.62 -0.28,1.15 -0.82,1.59 -0.55,0.43 -1.22,0.64 -2,0.64 -0.81,0 -1.43,-0.12 -1.86,-0.37 -0.43,-0.25 -0.65,-0.6 -0.65,-1.06 0,-0.37 0.09,-0.66 0.27,-0.88 0.18,-0.22 0.45,-0.37 0.81,-0.46 -0.09,-0.04 -0.18,-0.09 -0.26,-0.16 -0.24,-0.2 -0.37,-0.45 -0.37,-0.75 0,-0.33 0.2,-0.61 0.58,-0.84 0.17,-0.11 0.35,-0.19 0.55,-0.23 -0.33,-0.09 -0.62,-0.22 -0.87,-0.4 -0.42,-0.31 -0.64,-0.74 -0.64,-1.28 0,-0.57 0.22,-1.02 0.64,-1.35 0.42,-0.33 1,-0.49 1.72,-0.49l0.35 0.01 1.12 0.03c0.32,0 0.63,0 0.91,0 0.28,0 0.45,0 0.52,0 -0.02,0.13 -0.03,0.24 -0.03,0.33 0,0.1 0.01,0.21 0.03,0.35 -0.06,-0.03 -0.16,-0.06 -0.3,-0.08 -0.14,-0.01 -0.28,-0.02 -0.42,-0.03l-0.41 -0.02c0.4,0.34 0.6,0.74 0.6,1.19 0,0.56 -0.22,1 -0.64,1.33 -0.42,0.32 -1,0.49 -1.72,0.49 -0.28,0 -0.46,0.02 -0.56,0.07 -0.11,0.05 -0.16,0.14 -0.16,0.26zm0.75 -3.4c-0.29,0 -0.5,0.11 -0.65,0.34 -0.14,0.21 -0.22,0.54 -0.22,0.97 0,0.4 0.07,0.71 0.21,0.91 0.13,0.21 0.33,0.31 0.6,0.31l0 0c0.28,0 0.5,-0.11 0.64,-0.33 0.14,-0.22 0.22,-0.54 0.22,-0.97 0,-0.4 -0.07,-0.71 -0.21,-0.92 -0.13,-0.2 -0.33,-0.31 -0.6,-0.31l0.01 0zm-1.33 6.01c0,0.39 0.12,0.68 0.37,0.88 0.24,0.2 0.61,0.3 1.08,0.3 0.44,0 0.78,-0.1 1.03,-0.31 0.25,-0.21 0.38,-0.5 0.38,-0.87 0,-0.32 -0.1,-0.54 -0.29,-0.68 -0.18,-0.14 -0.49,-0.2 -0.92,-0.2l-1.06 0 -0.17 -0.01c-0.12,0.07 -0.22,0.2 -0.3,0.37 -0.08,0.17 -0.12,0.35 -0.12,0.52zm10.19 -2.1c0.01,-0.79 0.02,-1.7 0.02,-2.7 0,-1.01 -0.01,-1.91 -0.02,-2.71 -0.01,-0.41 -0.03,-0.71 -0.04,-0.91 -0.01,-0.19 -0.03,-0.38 -0.05,-0.57 0.26,0.05 0.57,0.08 0.93,0.1 0.36,0.02 0.67,0.02 0.93,0 0.43,-0.03 0.83,-0.05 1.19,-0.07 0.36,-0.02 0.59,-0.03 0.69,-0.03 1.26,0 2.24,0.35 2.92,1.04 0.67,0.69 1.01,1.68 1.01,2.97 0,1.4 -0.38,2.47 -1.15,3.23 -0.76,0.75 -1.86,1.13 -3.28,1.13 -0.12,0 -0.36,-0.01 -0.74,-0.03 -0.38,-0.02 -0.78,-0.04 -1.21,-0.07 -0.17,-0.01 -0.39,-0.01 -0.64,0.01 -0.25,0.02 -0.46,0.05 -0.65,0.09 0.02,-0.19 0.04,-0.38 0.05,-0.58 0.01,-0.19 0.03,-0.49 0.04,-0.9zm1.78 0.59l0 0c0.35,0.04 0.73,0.05 1.14,0.05 0.89,0 1.57,-0.31 2.03,-0.92 0.46,-0.61 0.7,-1.5 0.7,-2.68 0,-1.01 -0.24,-1.77 -0.71,-2.3 -0.47,-0.52 -1.16,-0.79 -2.06,-0.79 -0.39,0 -0.76,0.02 -1.1,0.05 -0.02,0.94 -0.04,2.04 -0.04,3.29 0,1.26 0.02,2.36 0.04,3.3zm7.61 -0.66l0 -1.39 0 -1.38c-0.01,-0.4 -0.02,-0.69 -0.03,-0.89 -0.02,-0.19 -0.04,-0.39 -0.07,-0.58 0.26,0.01 0.55,0.02 0.87,0.02 0.33,0 0.62,-0.01 0.88,-0.02 -0.03,0.19 -0.05,0.39 -0.06,0.58 -0.02,0.2 -0.03,0.49 -0.04,0.89l0 1.39 0 1.38c0.01,0.4 0.02,0.69 0.04,0.89 0.01,0.2 0.03,0.39 0.06,0.59 -0.26,-0.02 -0.55,-0.03 -0.87,-0.03 -0.33,0 -0.62,0.01 -0.88,0.03 0.03,-0.2 0.05,-0.39 0.07,-0.6 0.01,-0.19 0.02,-0.48 0.03,-0.88zm0.78 -7.34c0.25,0 0.47,0.09 0.65,0.27 0.18,0.18 0.27,0.39 0.27,0.65 0,0.26 -0.09,0.48 -0.27,0.65 -0.18,0.18 -0.4,0.27 -0.65,0.27 -0.26,0 -0.48,-0.09 -0.66,-0.27 -0.18,-0.17 -0.27,-0.39 -0.27,-0.65 0,-0.26 0.09,-0.47 0.27,-0.65 0.18,-0.18 0.4,-0.27 0.66,-0.27zm5.64 4.44c-0.09,-0.29 -0.25,-0.52 -0.47,-0.69 -0.22,-0.16 -0.48,-0.25 -0.77,-0.25 -0.25,0 -0.46,0.07 -0.62,0.2 -0.17,0.14 -0.25,0.3 -0.25,0.5 0,0.2 0.08,0.38 0.24,0.51 0.16,0.13 0.45,0.27 0.87,0.41 0.6,0.21 1.03,0.45 1.28,0.73 0.25,0.28 0.38,0.64 0.38,1.08 0,0.59 -0.2,1.07 -0.59,1.45 -0.4,0.39 -0.9,0.58 -1.5,0.58 -0.31,0 -0.63,-0.05 -0.96,-0.13 -0.33,-0.09 -0.6,-0.2 -0.82,-0.34 0.05,-0.2 0.09,-0.37 0.12,-0.51 0.03,-0.15 0.05,-0.32 0.07,-0.52l0.24 -0.01c0.19,0.32 0.41,0.57 0.64,0.73 0.24,0.16 0.49,0.24 0.75,0.24 0.28,0 0.51,-0.07 0.69,-0.2 0.19,-0.13 0.28,-0.3 0.28,-0.5 0,-0.23 -0.08,-0.41 -0.25,-0.55 -0.15,-0.14 -0.45,-0.28 -0.88,-0.43 -0.6,-0.21 -1.02,-0.45 -1.28,-0.73 -0.25,-0.28 -0.38,-0.65 -0.38,-1.11 0,-0.55 0.2,-1.01 0.58,-1.38 0.39,-0.37 0.88,-0.55 1.46,-0.55 0.29,0 0.56,0.03 0.82,0.1 0.26,0.07 0.54,0.18 0.85,0.34 -0.07,0.19 -0.12,0.36 -0.17,0.5 -0.04,0.15 -0.08,0.32 -0.12,0.53l-0.21 0zm2.23 2.9l0.01 -1.39 -0.01 -1.38c-0.01,-0.4 -0.02,-0.69 -0.03,-0.89 -0.01,-0.19 -0.03,-0.39 -0.06,-0.58 0.24,0.01 0.51,0.02 0.82,0.02 0.32,0 0.6,-0.01 0.85,-0.02 -0.04,0.27 -0.06,0.51 -0.08,0.7l-0.03 0.65c0.12,-0.26 0.25,-0.49 0.39,-0.68 0.39,-0.54 0.83,-0.8 1.31,-0.8 0.05,0 0.1,0 0.16,0 0.06,0 0.12,0.01 0.16,0.02 -0.02,0.31 -0.04,0.58 -0.05,0.81 -0.01,0.23 -0.01,0.5 -0.01,0.82l-0.12 0.07c-0.13,-0.08 -0.24,-0.13 -0.34,-0.17 -0.1,-0.03 -0.22,-0.05 -0.35,-0.05 -0.36,0 -0.62,0.14 -0.8,0.41 -0.18,0.27 -0.27,0.68 -0.27,1.21l0.01 1.25c0,0.4 0.02,0.69 0.03,0.89 0.01,0.2 0.03,0.39 0.06,0.59 -0.25,-0.02 -0.54,-0.03 -0.86,-0.03 -0.34,0 -0.63,0.01 -0.88,0.03 0.03,-0.2 0.05,-0.39 0.06,-0.6 0.02,-0.19 0.02,-0.48 0.03,-0.88zm6.39 -2.77l-0.01 1.39 0 0.79c0,0.4 0.08,0.7 0.24,0.9 0.16,0.2 0.39,0.3 0.7,0.3 0.38,0 0.66,-0.12 0.86,-0.37 0.19,-0.24 0.29,-0.6 0.29,-1.07l0 -0.55 -0.01 -1.39c-0.01,-0.4 -0.02,-0.7 -0.03,-0.89 -0.01,-0.2 -0.04,-0.39 -0.07,-0.58 0.26,0.01 0.55,0.02 0.87,0.02 0.33,0 0.62,-0.01 0.88,-0.02 -0.07,1 -0.1,1.49 -0.1,1.47l0 2.77c0,-0.02 0.03,0.47 0.1,1.48 -0.24,-0.02 -0.52,-0.03 -0.83,-0.03 -0.32,0 -0.59,0.01 -0.84,0.03 0.03,-0.28 0.06,-0.51 0.07,-0.71l0.01 -0.23c-0.1,0.15 -0.21,0.29 -0.33,0.42 -0.43,0.44 -0.92,0.66 -1.48,0.66 -0.6,0 -1.06,-0.17 -1.38,-0.5 -0.33,-0.33 -0.49,-0.8 -0.49,-1.41l0 -1.1 -0.01 -1.38c0,-0.4 -0.01,-0.69 -0.02,-0.89 -0.02,-0.19 -0.04,-0.39 -0.07,-0.58 0.25,0.01 0.54,0.02 0.87,0.02 0.33,0 0.62,-0.01 0.88,-0.02 -0.03,0.19 -0.06,0.39 -0.07,0.59 -0.01,0.19 -0.02,0.48 -0.03,0.88zm5.3 0c0,-0.37 -0.01,-0.65 -0.03,-0.84 -0.01,-0.2 -0.03,-0.41 -0.06,-0.63 0.24,0.01 0.52,0.02 0.83,0.02 0.31,0 0.59,-0.01 0.84,-0.02 -0.03,0.17 -0.05,0.35 -0.07,0.54l-0.02 0.19 0.05 -0.06c0.42,-0.54 0.98,-0.8 1.7,-0.8 0.71,0 1.28,0.25 1.7,0.76 0.42,0.5 0.62,1.19 0.62,2.06 0,0.97 -0.2,1.74 -0.62,2.31 -0.42,0.57 -0.98,0.86 -1.7,0.86 -0.71,0 -1.27,-0.26 -1.68,-0.78l0.01 1.63c0,0.36 0.01,0.64 0.03,0.84 0.01,0.19 0.03,0.41 0.06,0.63 -0.25,-0.01 -0.54,-0.02 -0.87,-0.02 -0.33,0 -0.63,0.01 -0.88,0.02 0.03,-0.22 0.05,-0.44 0.06,-0.63 0.02,-0.2 0.03,-0.48 0.03,-0.84l0.01 -2.62 -0.01 -2.62zm2.64 3.61c0.41,0 0.71,-0.19 0.92,-0.57 0.2,-0.38 0.31,-0.95 0.31,-1.7 0,-0.72 -0.1,-1.25 -0.29,-1.62 -0.18,-0.37 -0.46,-0.55 -0.84,-0.55 -0.4,0 -0.7,0.19 -0.9,0.56 -0.21,0.37 -0.31,0.93 -0.31,1.66 0,0.73 0.1,1.29 0.28,1.66 0.19,0.37 0.47,0.56 0.83,0.56zm7.45 0.54c-0.4,0.16 -0.81,0.24 -1.21,0.24 -0.53,0 -0.92,-0.12 -1.15,-0.35 -0.23,-0.24 -0.35,-0.63 -0.35,-1.16l0 -3.69 -0.24 0.01c-0.14,0 -0.26,0.01 -0.38,0.03 -0.12,0.01 -0.2,0.03 -0.24,0.04 0.02,-0.16 0.03,-0.29 0.03,-0.4 0,-0.11 -0.01,-0.24 -0.03,-0.4 0.04,0.02 0.13,0.04 0.25,0.05 0.12,0.02 0.25,0.03 0.37,0.03l0.24 0.01 0 -0.38c0,-0.13 -0.01,-0.29 -0.03,-0.49 -0.02,-0.2 -0.05,-0.39 -0.08,-0.56 0.36,-0.13 0.66,-0.25 0.92,-0.36l0.7 -0.32 0.14 0.1c-0.02,0.18 -0.04,0.45 -0.06,0.82 -0.03,0.38 -0.04,0.77 -0.04,1.19l0.19 0c0.17,0 0.35,-0.01 0.52,-0.03 0.18,-0.02 0.3,-0.04 0.39,-0.07 -0.03,0.16 -0.04,0.29 -0.04,0.41 0,0.11 0.01,0.25 0.04,0.41 -0.09,-0.02 -0.21,-0.05 -0.39,-0.07 -0.18,-0.02 -0.35,-0.03 -0.53,-0.03l-0.19 0 0 3.81c0,0.28 0.06,0.5 0.17,0.64 0.11,0.15 0.27,0.22 0.49,0.22 0.2,0 0.38,-0.04 0.51,-0.09l0 0.39zm1.53 -1.38l0 -1.39 0 -1.38c-0.01,-0.4 -0.02,-0.69 -0.03,-0.89 -0.02,-0.19 -0.04,-0.39 -0.07,-0.58 0.26,0.01 0.55,0.02 0.87,0.02 0.33,0 0.62,-0.01 0.88,-0.02 -0.03,0.19 -0.05,0.39 -0.06,0.58 -0.02,0.2 -0.03,0.49 -0.04,0.89l0 1.39 0 1.38c0.01,0.4 0.02,0.69 0.04,0.89 0.01,0.2 0.03,0.39 0.06,0.59 -0.26,-0.02 -0.55,-0.03 -0.87,-0.03 -0.33,0 -0.62,0.01 -0.88,0.03 0.03,-0.2 0.05,-0.39 0.07,-0.6 0.01,-0.19 0.02,-0.48 0.03,-0.88zm0.78 -7.34c0.25,0 0.47,0.09 0.65,0.27 0.18,0.18 0.27,0.39 0.27,0.65 0,0.26 -0.09,0.48 -0.27,0.65 -0.18,0.18 -0.4,0.27 -0.65,0.27 -0.26,0 -0.48,-0.09 -0.66,-0.27 -0.18,-0.17 -0.26,-0.39 -0.26,-0.65 0,-0.26 0.08,-0.47 0.26,-0.65 0.18,-0.18 0.4,-0.27 0.66,-0.27zm2.95 4.87c-0.22,-0.56 -0.37,-0.96 -0.46,-1.19 -0.1,-0.24 -0.18,-0.43 -0.26,-0.57 0.29,0.01 0.6,0.02 0.96,0.02 0.35,0 0.67,-0.01 0.96,-0.02l0.68 2.35 0.17 0.53 0.39 1.17 0.01 0 0.43 -1.16 0.25 -0.69c-0.05,0.13 -0.03,0.05 0.06,-0.24 0.08,-0.3 0.28,-0.95 0.6,-1.96 0.15,0.01 0.33,0.02 0.52,0.02 0.2,0 0.37,-0.01 0.53,-0.02 -0.07,0.13 -0.15,0.31 -0.25,0.55 -0.1,0.24 -0.26,0.64 -0.49,1.21l-0.42 1.09c-0.43,1.14 -0.77,2.1 -1.02,2.87 -0.25,-0.01 -0.47,-0.02 -0.65,-0.02 -0.19,0 -0.41,0.01 -0.66,0.02 -0.23,-0.77 -0.55,-1.73 -0.96,-2.86l-0.39 -1.1z"/>
   <path class="fil4" d="M119.88 53.03c-0.89,0 -1.61,-0.27 -2.13,-0.79 -0.53,-0.53 -0.79,-1.25 -0.79,-2.16 0,-0.93 0.25,-1.67 0.76,-2.22 0.51,-0.55 1.2,-0.82 2.06,-0.82 0.77,0 1.38,0.24 1.83,0.74 0.36,0.4 0.58,0.92 0.65,1.56 0.02,0.17 0.03,0.34 0.04,0.5 0,0.17 0,0.28 -0.02,0.35l0 0.01c-0.14,-0.03 -0.4,-0.05 -0.76,-0.07 -0.36,-0.02 -0.74,-0.03 -1.12,-0.03l-1.73 0c0.04,0.65 0.18,1.15 0.43,1.51 0.29,0.42 0.72,0.63 1.29,0.63 0.3,0 0.58,-0.04 0.84,-0.13 0.27,-0.08 0.51,-0.2 0.73,-0.37l0.11 0.13 -0.31 0.69c-0.29,0.15 -0.59,0.27 -0.91,0.35 -0.32,0.08 -0.64,0.12 -0.97,0.12zm0.69 -3.55l0 0 0 -0.22c0,-0.56 -0.07,-0.98 -0.23,-1.26 -0.15,-0.29 -0.38,-0.43 -0.68,-0.43l0.01 0c-0.33,0 -0.59,0.19 -0.76,0.56 -0.15,0.32 -0.23,0.77 -0.24,1.35l1.9 0zm9.01 -0.28l0 -3.77c-0.41,0.01 -0.82,0.02 -1.22,0.04 -0.47,0.02 -0.78,0.05 -0.95,0.08 0.03,-0.14 0.04,-0.3 0.04,-0.48 0,-0.18 -0.01,-0.35 -0.04,-0.49 0.25,0.03 0.66,0.06 1.22,0.09 0.57,0.02 1.1,0.03 1.61,0.03l0.21 0 0.21 0c0.51,0 1.04,-0.01 1.6,-0.03 0.56,-0.03 0.97,-0.06 1.22,-0.09 -0.02,0.14 -0.04,0.31 -0.04,0.49 0,0.18 0.02,0.34 0.04,0.48 -0.16,-0.03 -0.47,-0.06 -0.95,-0.08 -0.4,-0.02 -0.81,-0.03 -1.22,-0.04l0 3.77c0,0.89 0.01,1.58 0.02,2.07 0.02,0.49 0.04,1.03 0.08,1.61 -0.28,-0.01 -0.6,-0.02 -0.96,-0.02 -0.36,0 -0.68,0.01 -0.97,0.02 0.04,-0.58 0.07,-1.12 0.08,-1.61 0.01,-0.49 0.02,-1.18 0.02,-2.07zm7.87 3.83c-0.9,0 -1.61,-0.27 -2.13,-0.79 -0.53,-0.53 -0.79,-1.25 -0.79,-2.16 0,-0.93 0.25,-1.67 0.76,-2.22 0.51,-0.55 1.19,-0.82 2.06,-0.82 0.77,0 1.38,0.24 1.83,0.74 0.36,0.4 0.58,0.92 0.65,1.56 0.02,0.17 0.03,0.34 0.03,0.5 0.01,0.17 0,0.28 -0.01,0.35l0 0.01c-0.14,-0.03 -0.4,-0.05 -0.76,-0.07 -0.37,-0.02 -0.74,-0.03 -1.12,-0.03l-1.73 0c0.03,0.65 0.18,1.15 0.43,1.51 0.29,0.42 0.72,0.63 1.29,0.63 0.3,0 0.58,-0.04 0.84,-0.13 0.27,-0.08 0.51,-0.2 0.73,-0.37l0.11 0.13 -0.31 0.69c-0.29,0.15 -0.6,0.27 -0.92,0.35 -0.31,0.08 -0.63,0.12 -0.96,0.12zm0.69 -3.55l0 0 0 -0.22c0,-0.56 -0.08,-0.98 -0.23,-1.26 -0.15,-0.29 -0.38,-0.43 -0.68,-0.43l0.01 0c-0.34,0 -0.59,0.19 -0.76,0.56 -0.15,0.32 -0.23,0.77 -0.25,1.35l1.91 0zm7.7 2.42c-0.06,0.12 -0.11,0.23 -0.15,0.32 -0.04,0.09 -0.08,0.2 -0.13,0.33 -0.22,0.15 -0.46,0.27 -0.74,0.35 -0.26,0.09 -0.54,0.13 -0.8,0.13 -0.94,0 -1.7,-0.27 -2.3,-0.8 -0.59,-0.53 -0.88,-1.22 -0.88,-2.06 0,-0.96 0.29,-1.73 0.86,-2.29 0.57,-0.56 1.34,-0.84 2.31,-0.84 0.36,0 0.7,0.04 1.05,0.14 0.34,0.1 0.65,0.24 0.93,0.42 -0.09,0.2 -0.16,0.38 -0.22,0.53 -0.06,0.15 -0.13,0.34 -0.2,0.56l-0.24 0c-0.06,-0.35 -0.2,-0.62 -0.41,-0.81 -0.21,-0.19 -0.49,-0.28 -0.82,-0.28 -0.49,0 -0.87,0.2 -1.14,0.62 -0.28,0.41 -0.41,0.99 -0.41,1.73 0,0.78 0.15,1.37 0.46,1.77 0.31,0.4 0.77,0.6 1.37,0.6 0.23,0 0.46,-0.04 0.68,-0.13 0.21,-0.1 0.41,-0.23 0.57,-0.4l0.21 0.11zm1.68 -0.49l0.01 -2.98c0,-1.25 0,-2.25 -0.01,-3 -0.01,-0.38 -0.02,-0.67 -0.03,-0.86 -0.01,-0.2 -0.03,-0.41 -0.06,-0.61 0.26,0.02 0.55,0.02 0.87,0.02 0.34,0 0.63,0 0.89,-0.02 -0.03,0.21 -0.05,0.41 -0.06,0.61 -0.01,0.19 -0.02,0.48 -0.03,0.86l-0.02 2.52 0.24 -0.26c0.45,-0.44 0.97,-0.65 1.56,-0.65 0.56,0 1.02,0.18 1.35,0.55 0.33,0.37 0.5,0.88 0.5,1.51l0 0.93 0 1.38c0.01,0.42 0.02,0.73 0.03,0.92 0.01,0.2 0.03,0.38 0.05,0.55 -0.26,-0.01 -0.55,-0.02 -0.87,-0.02 -0.34,0 -0.63,0.01 -0.89,0.02 0.05,-0.19 0.08,-0.39 0.09,-0.58 0.02,-0.2 0.03,-0.49 0.04,-0.89l0.01 -1.39 0 -0.72c0,-0.41 -0.09,-0.73 -0.26,-0.94 -0.17,-0.21 -0.42,-0.32 -0.76,-0.32 -0.36,0 -0.63,0.12 -0.81,0.36 -0.19,0.24 -0.28,0.6 -0.28,1.08l0.02 1.93c0,0.36 0.01,0.63 0.02,0.83 0.01,0.19 0.03,0.41 0.07,0.64 -0.26,-0.01 -0.55,-0.02 -0.88,-0.02 -0.33,0 -0.63,0.01 -0.88,0.02 0.02,-0.2 0.05,-0.4 0.06,-0.6 0.01,-0.2 0.02,-0.49 0.03,-0.87zm6.98 0l0.01 -1.39 -0.01 -1.38c-0.01,-0.39 -0.02,-0.69 -0.03,-0.89 -0.02,-0.19 -0.04,-0.39 -0.07,-0.58 0.24,0.01 0.52,0.02 0.83,0.02 0.32,0 0.6,-0.01 0.84,-0.02 -0.03,0.27 -0.06,0.51 -0.08,0.7l-0.01 0.18c0.1,-0.13 0.2,-0.24 0.31,-0.36 0.45,-0.44 0.97,-0.65 1.55,-0.65 0.58,0 1.02,0.18 1.36,0.55 0.33,0.37 0.5,0.88 0.5,1.51l0 0.93 0.01 1.38c0,0.42 0.01,0.73 0.02,0.92 0.01,0.2 0.03,0.38 0.05,0.55 -0.26,-0.01 -0.55,-0.02 -0.87,-0.02 -0.34,0 -0.63,0.01 -0.89,0.02 0.05,-0.19 0.08,-0.39 0.09,-0.58 0.02,-0.2 0.03,-0.49 0.04,-0.89l0.01 -1.39 0 -0.72c0,-0.41 -0.09,-0.73 -0.26,-0.94 -0.17,-0.21 -0.42,-0.32 -0.76,-0.32 -0.36,0 -0.63,0.12 -0.82,0.36 -0.18,0.24 -0.27,0.6 -0.27,1.08l0 0.55 0.01 1.38c0,0.4 0.01,0.69 0.03,0.89 0.01,0.19 0.03,0.39 0.07,0.58 -0.26,-0.01 -0.55,-0.02 -0.88,-0.02 -0.33,0 -0.63,0.01 -0.88,0.02 0.03,-0.19 0.05,-0.39 0.07,-0.58 0.01,-0.2 0.02,-0.49 0.03,-0.89zm9.58 1.62c-0.92,0 -1.64,-0.25 -2.17,-0.75 -0.53,-0.49 -0.8,-1.16 -0.8,-2.01 0,-1 0.27,-1.79 0.8,-2.36 0.54,-0.58 1.26,-0.87 2.17,-0.87 0.91,0 1.63,0.24 2.16,0.74 0.54,0.5 0.81,1.17 0.81,2.02 0,1 -0.27,1.78 -0.8,2.36 -0.54,0.58 -1.26,0.87 -2.17,0.87zm-0.05 -0.54c0.43,0 0.75,-0.21 0.97,-0.63 0.23,-0.42 0.33,-1.05 0.33,-1.88 0,-0.79 -0.1,-1.39 -0.3,-1.8 -0.21,-0.4 -0.51,-0.61 -0.91,-0.61 -0.43,0 -0.75,0.21 -0.97,0.64 -0.22,0.42 -0.33,1.05 -0.33,1.88 0,0.79 0.1,1.39 0.31,1.79 0.2,0.41 0.5,0.61 0.9,0.61zm4.55 -1.08l0.02 -2.98c0,-1.25 -0.01,-2.25 -0.02,-3 0,-0.38 -0.01,-0.67 -0.02,-0.86 -0.02,-0.2 -0.03,-0.41 -0.06,-0.61 0.26,0.02 0.55,0.02 0.87,0.02 0.33,0 0.62,0 0.88,-0.02 -0.03,0.2 -0.05,0.41 -0.06,0.61 -0.01,0.19 -0.02,0.48 -0.03,0.86l-0.01 2.99 0.01 2.99c0.01,0.38 0.02,0.67 0.03,0.87 0.01,0.2 0.03,0.4 0.06,0.6 -0.26,-0.01 -0.55,-0.02 -0.87,-0.02 -0.33,0 -0.62,0.01 -0.88,0.02 0.03,-0.2 0.04,-0.4 0.06,-0.6 0.01,-0.2 0.02,-0.49 0.02,-0.87zm6.15 1.62c-0.91,0 -1.64,-0.25 -2.17,-0.75 -0.53,-0.49 -0.8,-1.16 -0.8,-2.01 0,-1 0.27,-1.79 0.8,-2.36 0.54,-0.58 1.26,-0.87 2.17,-0.87 0.91,0 1.63,0.24 2.16,0.74 0.54,0.5 0.81,1.17 0.81,2.02 0,1 -0.27,1.78 -0.8,2.36 -0.53,0.58 -1.26,0.87 -2.17,0.87zm-0.05 -0.54c0.43,0 0.75,-0.21 0.98,-0.63 0.22,-0.42 0.33,-1.05 0.33,-1.88 0,-0.79 -0.1,-1.39 -0.31,-1.8 -0.21,-0.4 -0.51,-0.61 -0.91,-0.61 -0.43,0 -0.75,0.21 -0.97,0.64 -0.22,0.42 -0.33,1.05 -0.33,1.88 0,0.79 0.1,1.39 0.31,1.79 0.2,0.41 0.5,0.61 0.9,0.61zm5.8 -1.52c0,0.14 0.06,0.25 0.19,0.35 0.12,0.09 0.27,0.14 0.45,0.14l0.85 0c0.72,0 1.25,0.13 1.59,0.4 0.35,0.26 0.52,0.67 0.52,1.22 0,0.63 -0.27,1.15 -0.82,1.59 -0.54,0.43 -1.21,0.64 -2,0.64 -0.8,0 -1.42,-0.12 -1.85,-0.37 -0.44,-0.25 -0.65,-0.6 -0.65,-1.06 0,-0.37 0.09,-0.66 0.27,-0.88 0.17,-0.22 0.44,-0.37 0.8,-0.46 -0.09,-0.04 -0.17,-0.09 -0.25,-0.16 -0.24,-0.2 -0.37,-0.45 -0.37,-0.75 0,-0.33 0.2,-0.61 0.58,-0.84 0.17,-0.11 0.35,-0.18 0.55,-0.24 -0.34,-0.08 -0.63,-0.21 -0.87,-0.39 -0.43,-0.31 -0.64,-0.74 -0.64,-1.28 0,-0.57 0.21,-1.02 0.64,-1.35 0.42,-0.33 1,-0.49 1.72,-0.49l0.35 0.01 1.11 0.03c0.33,0 0.63,0 0.91,0 0.28,0 0.46,0 0.53,0 -0.02,0.13 -0.03,0.24 -0.03,0.33 0,0.1 0.01,0.21 0.03,0.35 -0.07,-0.03 -0.17,-0.05 -0.31,-0.07 -0.14,-0.02 -0.28,-0.03 -0.41,-0.04l-0.41 -0.02c0.39,0.34 0.59,0.74 0.59,1.19 0,0.56 -0.21,1 -0.63,1.33 -0.43,0.32 -1,0.49 -1.73,0.49 -0.27,0 -0.46,0.02 -0.56,0.07 -0.1,0.05 -0.15,0.14 -0.15,0.26zm0.74 -3.4c-0.28,0 -0.5,0.11 -0.64,0.34 -0.15,0.21 -0.22,0.54 -0.22,0.97 0,0.4 0.07,0.71 0.2,0.91 0.14,0.21 0.34,0.31 0.6,0.31l0.01 0c0.28,0 0.49,-0.11 0.64,-0.33 0.14,-0.22 0.21,-0.54 0.21,-0.97 0,-0.41 -0.06,-0.71 -0.2,-0.92 -0.14,-0.2 -0.34,-0.31 -0.6,-0.31l0 0zm-1.33 6.01c0,0.39 0.13,0.68 0.37,0.88 0.25,0.2 0.61,0.3 1.09,0.3 0.44,0 0.78,-0.1 1.03,-0.31 0.25,-0.21 0.37,-0.5 0.37,-0.87 0,-0.32 -0.09,-0.54 -0.28,-0.68 -0.19,-0.14 -0.49,-0.21 -0.92,-0.21l-1.06 0 -0.18 0c-0.11,0.07 -0.21,0.19 -0.3,0.37 -0.08,0.17 -0.12,0.35 -0.12,0.52zm5.69 -2.17l0.01 -1.39 -0.01 -1.38c-0.01,-0.39 -0.02,-0.69 -0.03,-0.89 -0.01,-0.19 -0.03,-0.39 -0.06,-0.58 0.25,0.01 0.54,0.02 0.86,0.02 0.33,0 0.63,-0.01 0.88,-0.02 -0.03,0.19 -0.05,0.39 -0.06,0.58 -0.02,0.2 -0.03,0.5 -0.03,0.89l-0.01 1.39 0.01 1.38c0,0.4 0.01,0.69 0.03,0.89 0.01,0.19 0.03,0.39 0.06,0.58 -0.25,-0.01 -0.54,-0.02 -0.87,-0.02 -0.33,0 -0.62,0.01 -0.87,0.02 0.03,-0.19 0.05,-0.39 0.06,-0.58 0.01,-0.2 0.02,-0.49 0.03,-0.89zm0.78 -7.34c0.26,0 0.48,0.09 0.65,0.27 0.18,0.18 0.27,0.39 0.27,0.65 0,0.26 -0.09,0.48 -0.27,0.66 -0.17,0.17 -0.39,0.26 -0.65,0.26 -0.26,0 -0.48,-0.09 -0.66,-0.26 -0.17,-0.18 -0.26,-0.4 -0.26,-0.66 0,-0.26 0.09,-0.47 0.26,-0.65 0.18,-0.18 0.4,-0.27 0.66,-0.27zm5.32 8.96c-0.89,0 -1.6,-0.27 -2.13,-0.79 -0.53,-0.53 -0.79,-1.25 -0.79,-2.16 0,-0.93 0.25,-1.67 0.76,-2.22 0.51,-0.55 1.2,-0.82 2.06,-0.82 0.77,0 1.38,0.24 1.83,0.74 0.37,0.4 0.58,0.92 0.65,1.56 0.02,0.17 0.03,0.34 0.04,0.5 0,0.17 0,0.28 -0.01,0.35l0 0.01c-0.15,-0.03 -0.41,-0.05 -0.77,-0.07 -0.36,-0.02 -0.74,-0.03 -1.12,-0.03l-1.73 0c0.04,0.65 0.18,1.15 0.43,1.51 0.29,0.42 0.72,0.63 1.29,0.63 0.3,0 0.58,-0.04 0.85,-0.13 0.26,-0.08 0.5,-0.2 0.72,-0.37l0.11 0.13 -0.31 0.69c-0.29,0.15 -0.59,0.27 -0.91,0.35 -0.32,0.08 -0.64,0.12 -0.97,0.12zm0.69 -3.55l0 0 0 -0.22c0,-0.56 -0.08,-0.98 -0.23,-1.26 -0.15,-0.29 -0.38,-0.43 -0.68,-0.43l0.01 0c-0.33,0 -0.58,0.19 -0.76,0.56 -0.15,0.32 -0.23,0.77 -0.25,1.35l1.91 0zm5.95 -0.97c-0.09,-0.29 -0.25,-0.52 -0.47,-0.69 -0.22,-0.16 -0.47,-0.25 -0.77,-0.25 -0.24,0 -0.45,0.07 -0.61,0.2 -0.17,0.14 -0.25,0.3 -0.25,0.5 0,0.2 0.08,0.38 0.24,0.51 0.15,0.13 0.44,0.27 0.87,0.41 0.59,0.21 1.02,0.45 1.27,0.73 0.26,0.28 0.38,0.64 0.38,1.09 0,0.58 -0.19,1.06 -0.59,1.44 -0.39,0.39 -0.89,0.58 -1.49,0.58 -0.32,0 -0.64,-0.04 -0.97,-0.13 -0.33,-0.09 -0.6,-0.2 -0.81,-0.34 0.05,-0.2 0.09,-0.37 0.12,-0.51 0.02,-0.15 0.04,-0.32 0.07,-0.52l0.23 -0.01c0.2,0.32 0.41,0.57 0.65,0.73 0.23,0.16 0.48,0.24 0.75,0.24 0.27,0 0.5,-0.06 0.69,-0.2 0.18,-0.13 0.28,-0.3 0.28,-0.5 0,-0.23 -0.09,-0.41 -0.25,-0.55 -0.16,-0.14 -0.45,-0.29 -0.88,-0.43 -0.6,-0.21 -1.03,-0.45 -1.28,-0.73 -0.26,-0.28 -0.38,-0.65 -0.38,-1.11 0,-0.55 0.19,-1.01 0.58,-1.38 0.39,-0.37 0.87,-0.55 1.46,-0.55 0.28,0 0.55,0.03 0.82,0.1 0.26,0.07 0.54,0.18 0.85,0.34 -0.07,0.19 -0.13,0.36 -0.17,0.5 -0.05,0.15 -0.09,0.32 -0.13,0.53l-0.21 0z"/>
  </g>
 </g>
</svg>
